<?xml version="1.0"?><svg xmlns="http://www.w3.org/2000/svg" width="960" height="620" viewBox="0 0 960 620">
<style>.h{font-family:Arial;font-size:10;font-weight:bold;fill:#1F4E79}.t{font-family:Arial;font-size:9;fill:#333}
.l{stroke:#2E75B6;stroke-width:1.3;marker-end:url(#a)}.lr{stroke:#E53935;stroke-width:1.3;stroke-dasharray:5,3;marker-end:url(#ar)}
.lg{stroke:#4CAF50;stroke-width:1.3;marker-end:url(#ag)}</style>
<defs><marker id="a" markerWidth="7" markerHeight="5" refX="3.5" refY="2.5"><polygon points="0,0 7,2.5 0,5" fill="#2E75B6"/></marker>
<marker id="ar" markerWidth="7" markerHeight="5" refX="3.5" refY="2.5"><polygon points="0,0 7,2.5 0,5" fill="#E53935"/></marker>
<marker id="ag" markerWidth="7" markerHeight="5" refX="3.5" refY="2.5"><polygon points="0,0 7,2.5 0,5" fill="#4CAF50"/></marker></defs>
<rect width="960" height="620" fill="#fff"/>
<text x="480" y="20" text-anchor="middle" font-family="Arial" font-size="13" font-weight="bold" fill="#1F4E79">摄像头 → 告警推送 时序图</text><line x1="85" y1="48" x2="85" y2="580" stroke="#90A4AE" stroke-width="1.5"/><text x="85" y="40" text-anchor="middle" class="h">摄像头</text><line x1="195" y1="48" x2="195" y2="580" stroke="#90A4AE" stroke-width="1.5"/><text x="195" y="40" text-anchor="middle" class="h">FFmpeg</text><line x1="340" y1="48" x2="340" y2="580" stroke="#90A4AE" stroke-width="1.5"/><text x="340" y="40" text-anchor="middle" class="h">CV服务</text><line x1="500" y1="48" x2="500" y2="580" stroke="#90A4AE" stroke-width="1.5"/><text x="500" y="40" text-anchor="middle" class="h">Kafka</text><line x1="660" y1="48" x2="660" y2="580" stroke="#90A4AE" stroke-width="1.5"/><text x="660" y="40" text-anchor="middle" class="h">Behavior
Service</text><line x1="810" y1="48" x2="810" y2="580" stroke="#90A4AE" stroke-width="1.5"/><text x="810" y="40" text-anchor="middle" class="h">推送服务</text><line x1="85" y1="70" x2="195" y2="70" class="l"/><text x="140" y="65" text-anchor="middle" font-family="Arial" font-size="7" fill="#555">RTSP 视频流</text><line x1="195" y1="100" x2="340" y2="100" class="l"/><text x="267.5" y="95" text-anchor="middle" font-family="Arial" font-size="7" fill="#555">Base64 JPEG 每5秒</text><rect x="298" y="130" width="84" height="18" rx="3" fill="#E3F2FD" stroke="#2E75B6" stroke-width="0.8"/><text x="340" y="143" text-anchor="middle" font-family="Arial" font-size="7" fill="#333">YOLO+分类</text><line x1="340" y1="160" x2="500" y2="160" class="l"/><text x="420" y="155" text-anchor="middle" font-family="Arial" font-size="7" fill="#555">行为事件JSON</text><line x1="500" y1="190" x2="500" y2="190" class="l"/><text x="500" y="185" text-anchor="middle" font-family="Arial" font-size="7" fill="#555">分布式消费</text><line x1="500" y1="220" x2="660" y2="220" class="l"/><text x="580" y="215" text-anchor="middle" font-family="Arial" font-size="7" fill="#555">消费事件</text><rect x="618" y="250" width="84" height="18" rx="3" fill="#E3F2FD" stroke="#2E75B6" stroke-width="0.8"/><text x="660" y="263" text-anchor="middle" font-family="Arial" font-size="7" fill="#333">滑动窗口判异</text><rect x="320" y="280" width="100" height="30" rx="4" fill="#FFCDD2" stroke="#E53935" stroke-width="1"/><text x="370" y="300" text-anchor="middle" font-family="Arial" font-size="8" fill="#C62828">30min无进食?</text><line x1="660" y1="320" x2="810" y2="320" class="lr"/><text x="735" y="315" text-anchor="middle" font-family="Arial" font-size="7" fill="#555">生成告警</text><rect x="768" y="350" width="84" height="18" rx="3" fill="#E3F2FD" stroke="#2E75B6" stroke-width="0.8"/><text x="810" y="363" text-anchor="middle" font-family="Arial" font-size="7" fill="#333">查推送Token+免打扰</text><line x1="810" y1="380" x2="810" y2="380" class="l"/><text x="810" y="375" text-anchor="middle" font-family="Arial" font-size="7" fill="#555">FCM/APNs推送</text><text x="745" y="402" font-family="Arial" font-size="8" fill="#4CAF50">→ 用户App收到</text><line x1="810" y1="410" x2="810" y2="410" class="lr"/><text x="810" y="405" text-anchor="middle" font-family="Arial" font-size="7" fill="#555">5分未读→企微</text><text x="745" y="432" font-family="Arial" font-size="8" fill="#E53935">→ 微信追发</text><line x1="810" y1="440" x2="810" y2="440" class="lr"/><text x="810" y="435" text-anchor="middle" font-family="Arial" font-size="7" fill="#555">15分未读→短信</text><text x="745" y="462" font-family="Arial" font-size="8" fill="#E53935">→ VIP兜底</text><line x1="660" y1="480" x2="500" y2="480" class="lg"/><text x="580" y="475" text-anchor="middle" font-family="Arial" font-size="7" fill="#555">写事件表+更新摘要</text></svg>