<?xml version="1.0"?><svg xmlns="http://www.w3.org/2000/svg" width="800" height="420" viewBox="0 0 800 420">
<style>.h{font-family:Arial;font-size:10;font-weight:bold;fill:#1F4E79}.l{stroke:#2E75B6;stroke-width:1.3;marker-end:url(#a)}
.lg{stroke:#4CAF50;stroke-width:1.3;marker-end:url(#ag)}</style>
<defs><marker id="a" markerWidth="7" markerHeight="5" refX="3.5" refY="2.5"><polygon points="0,0 7,2.5 0,5" fill="#2E75B6"/></marker>
<marker id="ag" markerWidth="7" markerHeight="5" refX="3.5" refY="2.5"><polygon points="0,0 7,2.5 0,5" fill="#4CAF50"/></marker></defs>
<rect width="800" height="420" fill="#fff"/>
<text x="400" y="20" text-anchor="middle" font-family="Arial" font-size="13" font-weight="bold" fill="#1F4E79">每日报告生成 时序图</text><line x1="60" y1="48" x2="60" y2="380" stroke="#90A4AE" stroke-width="1.5"/><text x="60" y="40" text-anchor="middle" class="h">XXL-JOB</text><line x1="180" y1="48" x2="180" y2="380" stroke="#90A4AE" stroke-width="1.5"/><text x="180" y="40" text-anchor="middle" class="h">Behavior
Service</text><line x1="340" y1="48" x2="340" y2="380" stroke="#90A4AE" stroke-width="1.5"/><text x="340" y="40" text-anchor="middle" class="h">VIP
Service</text><line x1="500" y1="48" x2="500" y2="380" stroke="#90A4AE" stroke-width="1.5"/><text x="500" y="40" text-anchor="middle" class="h">LLM
API</text><line x1="680" y1="48" x2="680" y2="380" stroke="#90A4AE" stroke-width="1.5"/><text x="680" y="40" text-anchor="middle" class="h">推送服务</text><line x1="60" y1="70" x2="180" y2="70" class="l"/><text x="120" y="65" text-anchor="middle" font-family="Arial" font-size="7" fill="#555">22:00 触发任务</text><rect x="132" y="98" width="96" height="18" rx="3" fill="#E3F2FD" stroke="#2E75B6" stroke-width="0.8"/><text x="180" y="111" text-anchor="middle" font-family="Arial" font-size="7" fill="#333">查当日摘要+昨日对比</text><line x1="180" y1="126" x2="340" y2="126" class="lg"/><text x="260" y="121" text-anchor="middle" font-family="Arial" font-size="7" fill="#555">isVip(userId)?</text><line x1="340" y1="154" x2="180" y2="154" class="lg"/><text x="260" y="149" text-anchor="middle" font-family="Arial" font-size="7" fill="#555">true/false</text><line x1="180" y1="182" x2="500" y2="182" class="l"/><text x="340" y="177" text-anchor="middle" font-family="Arial" font-size="7" fill="#555">组装Prompt→调LLM</text><rect x="452" y="210" width="96" height="18" rx="3" fill="#E3F2FD" stroke="#2E75B6" stroke-width="0.8"/><text x="500" y="223" text-anchor="middle" font-family="Arial" font-size="7" fill="#333">GPT/DeepSeek生成</text><line x1="500" y1="238" x2="180" y2="238" class="l"/><text x="340" y="233" text-anchor="middle" font-family="Arial" font-size="7" fill="#555">{summary,highlights,...}</text><rect x="132" y="266" width="96" height="18" rx="3" fill="#E3F2FD" stroke="#2E75B6" stroke-width="0.8"/><text x="180" y="279" text-anchor="middle" font-family="Arial" font-size="7" fill="#333">写t_daily_report</text><line x1="180" y1="294" x2="680" y2="294" class="l"/><text x="430" y="289" text-anchor="middle" font-family="Arial" font-size="7" fill="#555">推送日报内容</text><rect x="632" y="322" width="96" height="18" rx="3" fill="#E3F2FD" stroke="#2E75B6" stroke-width="0.8"/><text x="680" y="335" text-anchor="middle" font-family="Arial" font-size="7" fill="#333">企微+App双通道</text><text x="350" y="358" text-anchor="middle" font-family="Arial" font-size="9" fill="#4CAF50">VIP用增强Prompt：含7天趋势+定制建议</text></svg>