<?xml version="1.0"?><svg xmlns="http://www.w3.org/2000/svg" width="900" height="420" viewBox="0 0 900 420">
<style>.h{font-family:Arial;font-size:10;font-weight:bold;fill:#1F4E79}.l{stroke:#2E75B6;stroke-width:1.3;marker-end:url(#a)}.lg{stroke:#4CAF50;stroke-width:1.3;marker-end:url(#ag)}.lr{stroke:#E53935;stroke-width:1.3;stroke-dasharray:5,3;marker-end:url(#ar)}</style>
<defs><marker id="a" markerWidth="7" markerHeight="5" refX="3.5" refY="2.5"><polygon points="0,0 7,2.5 0,5" fill="#2E75B6"/></marker><marker id="ag" markerWidth="7" markerHeight="5" refX="3.5" refY="2.5"><polygon points="0,0 7,2.5 0,5" fill="#4CAF50"/></marker><marker id="ar" markerWidth="7" markerHeight="5" refX="3.5" refY="2.5"><polygon points="0,0 7,2.5 0,5" fill="#E53935"/></marker></defs>
<rect width="900" height="420" fill="#fff"/>
<text x="450" y="20" text-anchor="middle" font-family="Arial" font-size="13" font-weight="bold" fill="#1F4E79">宠物专家线上咨询 时序图</text><line x1="60" y1="48" x2="60" y2="380" stroke="#90A4AE" stroke-width="1.5"/><text x="60" y="40" text-anchor="middle" class="h">用户App</text><line x1="220" y1="48" x2="220" y2="380" stroke="#90A4AE" stroke-width="1.5"/><text x="220" y="40" text-anchor="middle" class="h">Expert
Service</text><line x1="420" y1="48" x2="420" y2="380" stroke="#90A4AE" stroke-width="1.5"/><text x="420" y="40" text-anchor="middle" class="h">专家端</text><line x1="620" y1="48" x2="620" y2="380" stroke="#90A4AE" stroke-width="1.5"/><text x="620" y="40" text-anchor="middle" class="h">WebSocket
Hub</text><line x1="810" y1="48" x2="810" y2="380" stroke="#90A4AE" stroke-width="1.5"/><text x="810" y="40" text-anchor="middle" class="h">数据库</text><line x1="60" y1="70" x2="220" y2="70" class="l"/><text x="140" y="65" text-anchor="middle" font-family="Arial" font-size="7" fill="#555">POST /consultations {expertId,type}</text><rect x="168" y="96" width="104" height="18" rx="3" fill="#E3F2FD" stroke="#2E75B6" stroke-width="0.8"/><text x="220" y="109" text-anchor="middle" font-family="Arial" font-size="7" fill="#333">写t_consultation</text><line x1="220" y1="122" x2="810" y2="122" class="l"/><text x="515" y="117" text-anchor="middle" font-family="Arial" font-size="7" fill="#555">通知专家端(WS)</text><line x1="810" y1="148" x2="420" y2="148" class="l"/><text x="615" y="143" text-anchor="middle" font-family="Arial" font-size="7" fill="#555">推送接单请求</text><line x1="420" y1="174" x2="810" y2="174" class="lg"/><text x="615" y="169" text-anchor="middle" font-family="Arial" font-size="7" fill="#555">确认接单</text><line x1="810" y1="200" x2="220" y2="200" class="l"/><text x="515" y="195" text-anchor="middle" font-family="Arial" font-size="7" fill="#555">专家已接单</text><text x="340" y="214" font-family="Arial" font-size="8" fill="#4CAF50">===== WebSocket 消息通道建立 =====</text><line x1="60" y1="242" x2="810" y2="242" class="l"/><text x="435" y="237" text-anchor="middle" font-family="Arial" font-size="7" fill="#555">文字/图片消息</text><line x1="810" y1="268" x2="420" y2="268" class="l"/><text x="615" y="263" text-anchor="middle" font-family="Arial" font-size="7" fill="#555">转发消息</text><line x1="420" y1="294" x2="810" y2="294" class="lg"/><text x="615" y="289" text-anchor="middle" font-family="Arial" font-size="7" fill="#555">回复消息</text><line x1="810" y1="320" x2="60" y2="320" class="lg"/><text x="435" y="315" text-anchor="middle" font-family="Arial" font-size="7" fill="#555">转发回复</text><line x1="60" y1="346" x2="810" y2="346" class="l"/><text x="435" y="341" text-anchor="middle" font-family="Arial" font-size="7" fill="#555">WebRTC Offer</text><rect x="758" y="372" width="104" height="18" rx="3" fill="#E3F2FD" stroke="#2E75B6" stroke-width="0.8"/><text x="810" y="385" text-anchor="middle" font-family="Arial" font-size="7" fill="#333">ICE转发</text><line x1="810" y1="398" x2="420" y2="398" class="lg"/><text x="615" y="393" text-anchor="middle" font-family="Arial" font-size="7" fill="#555">WebRTC Answer</text><text x="510" y="416" font-family="Arial" font-size="8" fill="#4CAF50">→ 视频通话中</text><line x1="60" y1="424" x2="220" y2="424" class="l"/><text x="140" y="419" text-anchor="middle" font-family="Arial" font-size="7" fill="#555">结束咨询</text><line x1="220" y1="450" x2="810" y2="450" class="l"/><text x="515" y="445" text-anchor="middle" font-family="Arial" font-size="7" fill="#555">通知结束</text><rect x="168" y="476" width="104" height="18" rx="3" fill="#E3F2FD" stroke="#2E75B6" stroke-width="0.8"/><text x="220" y="489" text-anchor="middle" font-family="Arial" font-size="7" fill="#333">计算费用=时长×费率</text><line x1="220" y1="502" x2="undefined" y2="502" class="l"/><text x="NaN" y="497" text-anchor="middle" font-family="Arial" font-size="7" fill="#555">更新咨询状态+费用</text><line x1="220" y1="528" x2="60" y2="528" class="l"/><text x="140" y="523" text-anchor="middle" font-family="Arial" font-size="7" fill="#555">返回费用+评价入口</text></svg>