<?xml version="1.0"?><svg xmlns="http://www.w3.org/2000/svg" width="850" height="300" viewBox="0 0 850 300">
<style>.st{fill:#E3F2FD;stroke:#1F4E79;stroke-width:1.5;rx:8}.al{fill:#FFCDD2;stroke:#E53935;stroke-width:1.5;rx:8}.x{font-family:Arial;font-size:9;fill:#333;text-anchor:middle}</style>
<rect width="850" height="300" fill="#fff"/>
<text x="425" y="22" text-anchor="middle" font-family="Arial" font-size="13" font-weight="bold" fill="#1F4E79">行为分析状态机</text><defs><marker id="as" markerWidth="7" markerHeight="5" refX="3.5" refY="2.5"><polygon points="0,0 7,2.5 0,5" fill="#2E75B6"/></marker></defs><rect x="30" y="55" width="120" height="50" class="st"/><text x="90" y="83" class="x">RTSP推流中
等待帧</text><rect x="200" y="55" width="120" height="50" class="st"/><text x="260" y="83" class="x">CV推理
YOLO+分类</text><rect x="30" y="160" width="120" height="50" class="st"/><text x="90" y="188" class="x">行为事件
聚合中</text><rect x="200" y="160" width="120" height="50" class="st"/><text x="260" y="188" class="x">异常判定
滑动窗口</text><rect x="380" y="100" width="120" height="50" class="st"/><text x="440" y="128" class="x">推送告警
App+企微</text><rect x="550" y="55" width="120" height="50" class="st"/><text x="610" y="83" class="x">写摘要
每分钟更新</text><rect x="550" y="160" width="120" height="50" class="st"/><text x="610" y="188" class="x">写事件表
t_behavior_event</text><rect x="720" y="100" width="120" height="50" class="st"/><text x="780" y="128" class="x">写告警表
t_alert</text><line x1="150" y1="80" x2="200" y2="80" stroke="#2E75B6" stroke-width="1.2" marker-end="url(#as)"/><text x="165" y="76" font-family="Arial" font-size="7" fill="#666">新帧到达</text><line x1="260" y1="105" x2="260" y2="160" stroke="#2E75B6" stroke-width="1.2" marker-end="url(#as)"/><text x="250" y="128.5" font-family="Arial" font-size="7" fill="#666">行为JSON</text><line x1="150" y1="185" x2="200" y2="185" stroke="#2E75B6" stroke-width="1.2" marker-end="url(#as)"/><text x="165" y="181" font-family="Arial" font-size="7" fill="#666">事件结束</text><line x1="320" y1="135" x2="380" y2="120" stroke="#2E75B6" stroke-width="1.2" marker-end="url(#as)"/><text x="340" y="123.5" font-family="Arial" font-size="7" fill="#666">触发告警</text><line x1="440" y1="125" x2="550" y2="85" stroke="#2E75B6" stroke-width="1.2" marker-end="url(#as)"/><text x="485" y="101" font-family="Arial" font-size="7" fill="#666">正常</text><line x1="610" y1="105" x2="610" y2="55" stroke="#2E75B6" stroke-width="1.2" marker-end="url(#as)"/><text x="600" y="76" font-family="Arial" font-size="7" fill="#666">更新</text><line x1="580" y1="185" x2="580" y2="160" stroke="#2E75B6" stroke-width="1.2" marker-end="url(#as)"/><text x="570" y="168.5" font-family="Arial" font-size="7" fill="#666">写入</text><line x1="500" y1="125" x2="720" y2="120" stroke="#2E75B6" stroke-width="1.2" marker-end="url(#as)"/><text x="600" y="118.5" font-family="Arial" font-size="7" fill="#666">写入</text></svg>