<?xml version="1.0"?><svg xmlns="http://www.w3.org/2000/svg" width="900" height="520" viewBox="0 0 900 520">
<style>.cn{font-family:Arial;font-size:9;fill:#333}.ci{font-family:Arial;font-size:8;fill:#666}</style>
<rect width="900" height="520" fill="#fff"/>
<text x="450" y="20" text-anchor="middle" font-family="Arial" font-size="13" font-weight="bold" fill="#1F4E79">核心 Service 类图</text><rect x="20" y="50" width="180" height="20" rx="3" fill="#1F4E79"/><text x="110" y="64" text-anchor="middle" font-family="Arial" font-size="10" fill="#fff" font-weight="bold">12</text><text x="28" y="84" class="ci">AuthService</text><text x="28" y="98" class="ci">+ login(LoginDTO): TokenVO</text><text x="28" y="112" class="ci">+ register(RegisterDTO): TokenVO</text><text x="28" y="126" class="ci">+ refreshToken(String): TokenVO</text><text x="28" y="140" class="ci">- generateJWT(User): String</text><text x="28" y="154" class="ci">- validatePassword(String,String)</text><rect x="20" y="70" width="180" height="88" fill="#fff" stroke="#2E75B6" stroke-width="1.2" rx="2"/>
<rect x="220" y="50" width="180" height="20" rx="3" fill="#1F4E79"/><text x="310" y="64" text-anchor="middle" font-family="Arial" font-size="10" fill="#fff" font-weight="bold">12</text><text x="228" y="84" class="ci">DeviceService</text><text x="228" y="98" class="ci">+ addDevice(DeviceDTO): DeviceVO</text><text x="228" y="112" class="ci">+ removeDevice(Long): void</text><text x="228" y="126" class="ci">+ getStatus(Long): DeviceStatus</text><text x="228" y="140" class="ci">- startFFmpeg(Device): Process</text><text x="228" y="154" class="ci">- stopFFmpeg(Long): void</text><rect x="220" y="70" width="180" height="88" fill="#fff" stroke="#2E75B6" stroke-width="1.2" rx="2"/>
<rect x="420" y="50" width="180" height="20" rx="3" fill="#1F4E79"/><text x="510" y="64" text-anchor="middle" font-family="Arial" font-size="10" fill="#fff" font-weight="bold">14</text><text x="428" y="84" class="ci">BehaviorService</text><text x="428" y="98" class="ci">+ getCurrent(Long): BehaviorDTO</text><text x="428" y="112" class="ci">+ getTodaySummary(Long): SummaryDTO</text><text x="428" y="126" class="ci">+ getTimeline(Long,Date): List&lt;Event&gt;</text><text x="428" y="140" class="ci">+ getTrend(Long,Period): TrendDTO</text><text x="428" y="154" class="ci">- aggregateEvents()</text><text x="428" y="168" class="ci">- checkAlerts(SlidingWindow)</text><rect x="420" y="70" width="180" height="102" fill="#fff" stroke="#2E75B6" stroke-width="1.2" rx="2"/>
<rect x="620" y="50" width="180" height="20" rx="3" fill="#1F4E79"/><text x="710" y="64" text-anchor="middle" font-family="Arial" font-size="10" fill="#fff" font-weight="bold">9</text><text x="628" y="84" class="ci">NotificationService</text><text x="628" y="98" class="ci">+ pushAlert(Alert): void</text><text x="628" y="112" class="ci">+ sendReport(Report): void</text><text x="628" y="126" class="ci">+ sendRemind(Remind): void</text><text x="628" y="140" class="ci">- pushFCM(String,Message)</text><text x="628" y="154" class="ci">- pushWeCom(String,Message)</text><text x="628" y="168" class="ci">- pushSMS(String,String)</text><rect x="620" y="70" width="180" height="102" fill="#fff" stroke="#2E75B6" stroke-width="1.2" rx="2"/>
<rect x="20" y="280" width="180" height="20" rx="3" fill="#1F4E79"/><text x="110" y="294" text-anchor="middle" font-family="Arial" font-size="10" fill="#fff" font-weight="bold">9</text><text x="28" y="314" class="ci">FeedingService</text><text x="28" y="328" class="ci">+ getGuide(Pet): GuideDTO</text><text x="28" y="342" class="ci">+ getDailyAdvice(Long): AdviceDTO</text><text x="28" y="356" class="ci">+ createPlan(PlanDTO): PlanVO (VIP)</text><text x="28" y="370" class="ci">- buildPrompt(Pet,Summary): String</text><text x="28" y="384" class="ci">- callLLM(String): LLMResponse</text><rect x="20" y="300" width="180" height="88" fill="#fff" stroke="#2E75B6" stroke-width="1.2" rx="2"/>
<rect x="220" y="280" width="180" height="20" rx="3" fill="#1F4E79"/><text x="310" y="294" text-anchor="middle" font-family="Arial" font-size="10" fill="#fff" font-weight="bold">10</text><text x="228" y="314" class="ci">VipService</text><text x="228" y="328" class="ci">+ createOrder(OrderDTO): PayParams</text><text x="228" y="342" class="ci">+ paymentCallback(Map): void</text><text x="228" y="356" class="ci">+ checkAutoRenew(): void</text><text x="228" y="370" class="ci">- verifySign(Map): boolean</text><text x="228" y="384" class="ci">- updateVipStatus(Long,Status)</text><rect x="220" y="300" width="180" height="88" fill="#fff" stroke="#2E75B6" stroke-width="1.2" rx="2"/>
<rect x="420" y="280" width="180" height="20" rx="3" fill="#1F4E79"/><text x="510" y="294" text-anchor="middle" font-family="Arial" font-size="10" fill="#fff" font-weight="bold">10</text><text x="428" y="314" class="ci">ExpertService</text><text x="428" y="328" class="ci">+ getOnlineList(): List&lt;Expert&gt;</text><text x="428" y="342" class="ci">+ createConsult(Long,Long): Session</text><text x="428" y="356" class="ci">+ endConsult(Long): Fee</text><text x="428" y="370" class="ci">- signalWebRTC(Offer,Answer)</text><text x="428" y="384" class="ci">- calcFee(Duration,rate)</text><rect x="420" y="300" width="180" height="88" fill="#fff" stroke="#2E75B6" stroke-width="1.2" rx="2"/>
<rect x="620" y="280" width="180" height="20" rx="3" fill="#1F4E79"/><text x="710" y="294" text-anchor="middle" font-family="Arial" font-size="10" fill="#fff" font-weight="bold">5</text><text x="628" y="314" class="ci">HealthService</text><text x="628" y="328" class="ci">+ addRecord(RecordDTO): RecordVO</text><text x="628" y="342" class="ci">+ getRecords(Long,Type): List&lt;Record&gt;</text><text x="628" y="356" class="ci">+ checkExpiring(): List&lt;Alert&gt;</text><text x="628" y="370" class="ci">- validateRecordType(Type)</text><rect x="620" y="300" width="180" height="74" fill="#fff" stroke="#2E75B6" stroke-width="1.2" rx="2"/></svg>