<?xml version="1.0" encoding="UTF-8"?>
<svg xmlns="http://www.w3.org/2000/svg" width="850" height="360" viewBox="0 0 850 360">
<rect width="850" height="360" fill="#FFFFFF"/>
<text x="425" y="35" text-anchor="middle" font-family="Microsoft YaHei,Arial,sans-serif" font-size="18" font-weight="bold" fill="#1F4E79">游客用例图</text>
<rect x="260" y="70" width="550" height="240" rx="8" ry="8" fill="none" stroke="#1F4E79" stroke-width="2" stroke-dasharray="8,4"/>
    <rect x="272" y="60" width="180" height="22" rx="4" fill="#1F4E79"/>
    <text x="282" y="77" font-family="Microsoft YaHei,Arial,sans-serif" font-size="13" fill="#FFFFFF" font-weight="bold">AI宠物管家（前台）</text>
<circle cx="60" cy="163" r="9" fill="none" stroke="#1a1a2e" stroke-width="1.8"/>
<line x1="60" y1="172" x2="60" y2="194" stroke="#1a1a2e" stroke-width="1.8"/>
<line x1="46" y1="178" x2="74" y2="178" stroke="#1a1a2e" stroke-width="1.8"/>
<line x1="60" y1="194" x2="48" y2="210" stroke="#1a1a2e" stroke-width="1.8"/>
<line x1="60" y1="194" x2="72" y2="210" stroke="#1a1a2e" stroke-width="1.8"/>
<text x="60" y="229" text-anchor="middle" font-family="Microsoft YaHei,Arial,sans-serif" font-size="13" font-weight="bold" fill="#1a1a2e">游客</text>
<ellipse cx="535" cy="130" rx="115" ry="36" fill="#E8F0FE" stroke="#2E75B6" stroke-width="1.8"/>
<text x="535" y="134.55" text-anchor="middle" font-family="Microsoft YaHei,Arial,sans-serif" font-size="13" fill="#1a1a2e">UC-T-01 浏览功能介绍</text>
<ellipse cx="535" cy="200" rx="115" ry="36" fill="#E8F0FE" stroke="#2E75B6" stroke-width="1.8"/>
<text x="535" y="204.55" text-anchor="middle" font-family="Microsoft YaHei,Arial,sans-serif" font-size="13" fill="#1a1a2e">UC-T-02 查看示例报告</text>
<ellipse cx="535" cy="270" rx="115" ry="36" fill="#E8F0FE" stroke="#2E75B6" stroke-width="1.8"/>
<text x="535" y="274.55" text-anchor="middle" font-family="Microsoft YaHei,Arial,sans-serif" font-size="13" fill="#1a1a2e">UC-T-03 注册账号</text>
<line x1="60" y1="205" x2="421.4072589871571" y2="136.23850293892045" stroke="#333" stroke-width="1.5"/>
<line x1="60" y1="205" x2="420.00637066172277" y2="200.4210293065017" stroke="#333" stroke-width="1.5"/>
<line x1="60" y1="205" x2="421.0618415143383" y2="264.57685652974425" stroke="#333" stroke-width="1.5"/>
</svg>