<?xml version="1.0" encoding="UTF-8"?>
<svg xmlns="http://www.w3.org/2000/svg" width="850" height="500" viewBox="0 0 850 500">
<rect width="850" height="500" fill="#FFFFFF"/>
<text x="425" y="35" text-anchor="middle" font-family="Microsoft YaHei,Arial,sans-serif" font-size="18" font-weight="bold" fill="#1F4E79">普通用户 — 用户管理用例图</text>
<rect x="260" y="70" width="550" height="380" rx="8" ry="8" fill="none" stroke="#1F4E79" stroke-width="2" stroke-dasharray="8,4"/>
    <rect x="272" y="60" width="116" height="22" rx="4" fill="#1F4E79"/>
    <text x="282" y="77" font-family="Microsoft YaHei,Arial,sans-serif" font-size="13" fill="#FFFFFF" font-weight="bold">用户管理模块</text>
<circle cx="60" cy="233" r="9" fill="none" stroke="#1a1a2e" stroke-width="1.8"/>
<line x1="60" y1="242" x2="60" y2="264" stroke="#1a1a2e" stroke-width="1.8"/>
<line x1="46" y1="248" x2="74" y2="248" stroke="#1a1a2e" stroke-width="1.8"/>
<line x1="60" y1="264" x2="48" y2="280" stroke="#1a1a2e" stroke-width="1.8"/>
<line x1="60" y1="264" x2="72" y2="280" stroke="#1a1a2e" stroke-width="1.8"/>
<text x="60" y="299" text-anchor="middle" font-family="Microsoft YaHei,Arial,sans-serif" font-size="13" font-weight="bold" fill="#1a1a2e">普通用户</text>
<ellipse cx="535" cy="130" rx="115" ry="36" fill="#E8F0FE" stroke="#2E75B6" stroke-width="1.8"/>
<text x="535" y="134.55" text-anchor="middle" font-family="Microsoft YaHei,Arial,sans-serif" font-size="13" fill="#1a1a2e">UC-U-01 登录系统</text>
<ellipse cx="535" cy="200" rx="115" ry="36" fill="#E8F0FE" stroke="#2E75B6" stroke-width="1.8"/>
<text x="535" y="204.55" text-anchor="middle" font-family="Microsoft YaHei,Arial,sans-serif" font-size="13" fill="#1a1a2e">UC-U-02 找回密码</text>
<ellipse cx="535" cy="270" rx="115" ry="36" fill="#E8F0FE" stroke="#2E75B6" stroke-width="1.8"/>
<text x="535" y="274.55" text-anchor="middle" font-family="Microsoft YaHei,Arial,sans-serif" font-size="13" fill="#1a1a2e">UC-U-03 修改个人资料</text>
<ellipse cx="535" cy="340" rx="115" ry="36" fill="#E8F0FE" stroke="#2E75B6" stroke-width="1.8"/>
<text x="535" y="344.55" text-anchor="middle" font-family="Microsoft YaHei,Arial,sans-serif" font-size="13" fill="#1a1a2e">UC-U-04 修改头像</text>
<ellipse cx="535" cy="410" rx="115" ry="36" fill="#E8F0FE" stroke="#2E75B6" stroke-width="1.8"/>
<text x="535" y="414.55" text-anchor="middle" font-family="Microsoft YaHei,Arial,sans-serif" font-size="13" fill="#1a1a2e">UC-U-05 升级VIP</text>
<line x1="60" y1="275" x2="425.0105855304348" y2="141.6785099116426" stroke="#333" stroke-width="1.5"/>
<line x1="60" y1="275" x2="421.4072589871571" y2="206.23850293892045" stroke="#333" stroke-width="1.5"/>
<line x1="60" y1="275" x2="420.00637066172277" y2="270.4210293065017" stroke="#333" stroke-width="1.5"/>
<line x1="60" y1="275" x2="421.0618415143383" y2="334.57685652974425" stroke="#333" stroke-width="1.5"/>
<line x1="60" y1="275" x2="424.38091291408176" y2="399.0646577526049" stroke="#333" stroke-width="1.5"/>
</svg>