<?xml version="1.0" encoding="UTF-8"?>
<svg xmlns="http://www.w3.org/2000/svg" width="850" height="570" viewBox="0 0 850 570">
  <rect width="850" height="570" fill="#FFFFFF"/>
  <text x="425" y="35" text-anchor="middle" font-family="Microsoft YaHei, Arial, sans-serif" font-size="18" font-weight="bold" fill="#1F4E79">普通用户 — 智能提醒用例图</text>
<rect x="240" y="70" width="570" height="450" rx="8" ry="8" fill="none" stroke="#1F4E79" stroke-width="2" stroke-dasharray="8,4"/>
    <rect x="252" y="60" width="116" height="22" rx="4" fill="#1F4E79"/>
    <text x="262" y="77" font-family="Microsoft YaHei, Arial, sans-serif" font-size="13" fill="#FFFFFF" font-weight="bold">智能提醒模块</text>
<circle cx="60" cy="233" r="9" fill="none" stroke="#1a1a2e" stroke-width="1.8"/>
<line x1="60" y1="242" x2="60" y2="264" stroke="#1a1a2e" stroke-width="1.8"/>
<line x1="46" y1="248" x2="74" y2="248" stroke="#1a1a2e" stroke-width="1.8"/>
<line x1="60" y1="264" x2="48" y2="280" stroke="#1a1a2e" stroke-width="1.8"/>
<line x1="60" y1="264" x2="72" y2="280" stroke="#1a1a2e" stroke-width="1.8"/>
<text x="60" y="297" text-anchor="middle" font-family="Microsoft YaHei, Arial, sans-serif" font-size="13" font-weight="bold" fill="#1a1a2e">普通用户</text>
<circle cx="60" cy="303" r="9" fill="none" stroke="#1a1a2e" stroke-width="1.8"/>
<line x1="60" y1="312" x2="60" y2="334" stroke="#1a1a2e" stroke-width="1.8"/>
<line x1="46" y1="318" x2="74" y2="318" stroke="#1a1a2e" stroke-width="1.8"/>
<line x1="60" y1="334" x2="48" y2="350" stroke="#1a1a2e" stroke-width="1.8"/>
<line x1="60" y1="334" x2="72" y2="350" stroke="#1a1a2e" stroke-width="1.8"/>
<text x="60" y="367" text-anchor="middle" font-family="Microsoft YaHei, Arial, sans-serif" font-size="13" font-weight="bold" fill="#1a1a2e">定时任务</text>
<ellipse cx="525" cy="130" rx="110" ry="36" fill="#E8F0FE" stroke="#2E75B6" stroke-width="1.8"/>
<text x="525" y="134.55" text-anchor="middle" font-family="Microsoft YaHei, Arial, sans-serif" font-size="13" fill="#1a1a2e">接收疫苗提醒</text>
<ellipse cx="525" cy="200" rx="110" ry="36" fill="#E8F0FE" stroke="#2E75B6" stroke-width="1.8"/>
<text x="525" y="204.55" text-anchor="middle" font-family="Microsoft YaHei, Arial, sans-serif" font-size="13" fill="#1a1a2e">接收驱虫提醒</text>
<ellipse cx="525" cy="270" rx="110" ry="36" fill="#E8F0FE" stroke="#2E75B6" stroke-width="1.8"/>
<text x="525" y="274.55" text-anchor="middle" font-family="Microsoft YaHei, Arial, sans-serif" font-size="13" fill="#1a1a2e">接收体检提醒</text>
<ellipse cx="525" cy="340" rx="110" ry="36" fill="#E8F0FE" stroke="#2E75B6" stroke-width="1.8"/>
<text x="525" y="344.55" text-anchor="middle" font-family="Microsoft YaHei, Arial, sans-serif" font-size="13" fill="#1a1a2e">接收用药提醒</text>
<ellipse cx="525" cy="410" rx="110" ry="36" fill="#E8F0FE" stroke="#2E75B6" stroke-width="1.8"/>
<text x="525" y="414.55" text-anchor="middle" font-family="Microsoft YaHei, Arial, sans-serif" font-size="13" fill="#1a1a2e">接收宠物生日提醒</text>
<ellipse cx="525" cy="480" rx="110" ry="36" fill="#E8F0FE" stroke="#2E75B6" stroke-width="1.8"/>
<text x="525" y="484.55" text-anchor="middle" font-family="Microsoft YaHei, Arial, sans-serif" font-size="13" fill="#1a1a2e">管理提醒设置</text>
<line x1="60" y1="275" x2="415.21381782949965" y2="141.90761770152224" stroke="#333" stroke-width="1.5"/>
<line x1="60" y1="275" x2="411.4672711180456" y2="206.36929755298482" stroke="#333" stroke-width="1.5"/>
<line x1="60" y1="275" x2="410.0066475909764" y2="270.4300826644564" stroke="#333" stroke-width="1.5"/>
<line x1="60" y1="275" x2="411.1073385564846" y2="334.4624418933494" stroke="#333" stroke-width="1.5"/>
<line x1="60" y1="275" x2="414.5601839233332" y2="398.8475922054418" stroke="#333" stroke-width="1.5"/>
<line x1="60" y1="275" x2="419.7721666942319" y2="463.86408166232263" stroke="#333" stroke-width="1.5"/>
</svg>