<?xml version="1.0" encoding="UTF-8"?>
<svg xmlns="http://www.w3.org/2000/svg" width="850" height="360" viewBox="0 0 850 360">
  <rect width="850" height="360" fill="#FFFFFF"/>
  <text x="425" y="35" text-anchor="middle" font-family="Microsoft YaHei, Arial, sans-serif" font-size="18" font-weight="bold" fill="#1F4E79">普通用户 — AI基础服务用例图</text>
<rect x="240" y="70" width="570" height="240" rx="8" ry="8" fill="none" stroke="#1F4E79" stroke-width="2" stroke-dasharray="8,4"/>
    <rect x="252" y="60" width="148" height="22" rx="4" fill="#1F4E79"/>
    <text x="262" y="77" font-family="Microsoft YaHei, Arial, sans-serif" font-size="13" fill="#FFFFFF" font-weight="bold">AI基础服务模块</text>
<circle cx="60" cy="163" r="9" fill="none" stroke="#1a1a2e" stroke-width="1.8"/>
<line x1="60" y1="172" x2="60" y2="194" stroke="#1a1a2e" stroke-width="1.8"/>
<line x1="46" y1="178" x2="74" y2="178" stroke="#1a1a2e" stroke-width="1.8"/>
<line x1="60" y1="194" x2="48" y2="210" stroke="#1a1a2e" stroke-width="1.8"/>
<line x1="60" y1="194" x2="72" y2="210" stroke="#1a1a2e" stroke-width="1.8"/>
<text x="60" y="227" text-anchor="middle" font-family="Microsoft YaHei, Arial, sans-serif" font-size="13" font-weight="bold" fill="#1a1a2e">普通用户</text>
<ellipse cx="525" cy="130" rx="110" ry="36" fill="#E8F0FE" stroke="#2E75B6" stroke-width="1.8"/>
<text x="525" y="134.55" text-anchor="middle" font-family="Microsoft YaHei, Arial, sans-serif" font-size="13" fill="#1a1a2e">AI宠物品种推荐</text>
<ellipse cx="525" cy="200" rx="110" ry="36" fill="#E8F0FE" stroke="#2E75B6" stroke-width="1.8"/>
<text x="525" y="204.55" text-anchor="middle" font-family="Microsoft YaHei, Arial, sans-serif" font-size="13" fill="#1a1a2e">查看个性化内容推荐</text>
<ellipse cx="525" cy="270" rx="110" ry="36" fill="#E8F0FE" stroke="#2E75B6" stroke-width="1.8"/>
<text x="525" y="274.55" text-anchor="middle" font-family="Microsoft YaHei, Arial, sans-serif" font-size="13" fill="#1a1a2e">AI帖子辅助</text>
<line x1="60" y1="205" x2="411.4672711180456" y2="136.36929755298482" stroke="#333" stroke-width="1.5"/>
<line x1="60" y1="205" x2="410.0066475909764" y2="200.43008266445636" stroke="#333" stroke-width="1.5"/>
<line x1="60" y1="205" x2="411.1073385564846" y2="264.4624418933494" stroke="#333" stroke-width="1.5"/>
</svg>