<?xml version="1.0" encoding="UTF-8"?>
<svg xmlns="http://www.w3.org/2000/svg" width="850" height="430" viewBox="0 0 850 430">
  <rect width="850" height="430" fill="#FFFFFF"/>
  <text x="425" y="35" text-anchor="middle" font-family="Microsoft YaHei, Arial, sans-serif" font-size="18" font-weight="bold" fill="#1F4E79">管理员 — 数据统计与系统配置用例图</text>
<rect x="240" y="70" width="570" height="310" rx="8" ry="8" fill="none" stroke="#1F4E79" stroke-width="2" stroke-dasharray="8,4"/>
    <rect x="252" y="60" width="244" height="22" rx="4" fill="#1F4E79"/>
    <text x="262" y="77" font-family="Microsoft YaHei, Arial, sans-serif" font-size="13" fill="#FFFFFF" font-weight="bold">后台管理 — 统计与配置模块</text>
<circle cx="60" cy="198" r="9" fill="none" stroke="#1a1a2e" stroke-width="1.8"/>
<line x1="60" y1="207" x2="60" y2="229" stroke="#1a1a2e" stroke-width="1.8"/>
<line x1="46" y1="213" x2="74" y2="213" stroke="#1a1a2e" stroke-width="1.8"/>
<line x1="60" y1="229" x2="48" y2="245" stroke="#1a1a2e" stroke-width="1.8"/>
<line x1="60" y1="229" x2="72" y2="245" stroke="#1a1a2e" stroke-width="1.8"/>
<text x="60" y="262" text-anchor="middle" font-family="Microsoft YaHei, Arial, sans-serif" font-size="13" font-weight="bold" fill="#1a1a2e">管理员</text>
<ellipse cx="525" cy="130" rx="110" ry="36" fill="#E8F0FE" stroke="#2E75B6" stroke-width="1.8"/>
<text x="525" y="134.55" text-anchor="middle" font-family="Microsoft YaHei, Arial, sans-serif" font-size="13" fill="#1a1a2e">查看数据统计</text>
<ellipse cx="525" cy="200" rx="110" ry="36" fill="#E8F0FE" stroke="#2E75B6" stroke-width="1.8"/>
<text x="525" y="204.55" text-anchor="middle" font-family="Microsoft YaHei, Arial, sans-serif" font-size="13" fill="#1a1a2e">导出统计报表</text>
<ellipse cx="525" cy="270" rx="110" ry="36" fill="#E8F0FE" stroke="#2E75B6" stroke-width="1.8"/>
<text x="525" y="274.55" text-anchor="middle" font-family="Microsoft YaHei, Arial, sans-serif" font-size="13" fill="#1a1a2e">系统配置管理</text>
<ellipse cx="525" cy="340" rx="110" ry="36" fill="#E8F0FE" stroke="#2E75B6" stroke-width="1.8"/>
<text x="525" y="344.55" text-anchor="middle" font-family="Microsoft YaHei, Arial, sans-serif" font-size="13" fill="#1a1a2e">操作日志查看</text>
<line x1="60" y1="240" x2="413.0886692321465" y2="139.20822543952417" stroke="#333" stroke-width="1.5"/>
<line x1="60" y1="240" x2="410.423135848935" y2="203.4281997688958" stroke="#333" stroke-width="1.5"/>
<line x1="60" y1="240" x2="410.2385894686273" y2="267.4247088800814" stroke="#333" stroke-width="1.5"/>
<line x1="60" y1="240" x2="412.57044420114005" y2="331.5901220533812" stroke="#333" stroke-width="1.5"/>
</svg>