<?xml version="1.0"?><svg xmlns="http://www.w3.org/2000/svg" width="980" height="620" viewBox="0 0 980 620"><rect width="980" height="620" fill="#fff"/>
<text x="490" y="28" text-anchor="middle" font-family="Microsoft YaHei,Arial" font-size="16" font-weight="bold" fill="#1F4E79">系统架构图</text><rect x="55" y="55" width="870" height="70" rx="6" fill="#E8F0FE" stroke="#2E75B6" stroke-width="1.5"/><text x="65" y="73" font-family="Arial" font-size="11" fill="#666">接入层</text><rect x="105" y="81" width="150" height="35" rx="5" fill="#fff" stroke="#999" stroke-width="1"/><text x="180" y="103" text-anchor="middle" font-family="Arial" font-size="10" fill="#333">Flutter App
(iOS/Android)</text><rect x="335" y="81" width="150" height="35" rx="5" fill="#fff" stroke="#999" stroke-width="1"/><text x="410" y="103" text-anchor="middle" font-family="Arial" font-size="10" fill="#333">Vue3 Admin
(管理后台)</text><rect x="565" y="81" width="150" height="35" rx="5" fill="#fff" stroke="#999" stroke-width="1"/><text x="640" y="103" text-anchor="middle" font-family="Arial" font-size="10" fill="#333">企业微信
(消息推送)</text><rect x="735" y="81" width="150" height="35" rx="5" fill="#fff" stroke="#999" stroke-width="1"/><text x="810" y="103" text-anchor="middle" font-family="Arial" font-size="10" fill="#333">H5 WebView
(资讯浏览)</text><line x1="490" y1="125" x2="490" y2="145" stroke="#2E75B6" stroke-width="2" marker-end="url(#a)"/><rect x="55" y="150" width="870" height="40" rx="6" fill="#D6E4F0" stroke="#2E75B6" stroke-width="1.5"/><text x="490" y="176" text-anchor="middle" font-family="Arial" font-size="12" font-weight="bold" fill="#1F4E79">Nginx 反向代理 (HTTPS/WSS + 负载均衡)</text><line x1="490" y1="190" x2="490" y2="210" stroke="#2E75B6" stroke-width="2" marker-end="url(#a)"/><rect x="55" y="215" width="870" height="100" rx="6" fill="#E8F0FE" stroke="#2E75B6" stroke-width="1.5"/><text x="65" y="233" font-family="Arial" font-size="11" fill="#666">服务层</text><rect x="105" y="241" width="150" height="50" rx="5" fill="#fff" stroke="#1F4E79" stroke-width="1.5"/><text x="180" y="263" text-anchor="middle" font-family="Arial" font-size="10" fill="#333">Spring Boot API
(业务核心)</text><rect x="335" y="241" width="150" height="50" rx="5" fill="#fff" stroke="#1F4E79" stroke-width="1.5"/><text x="410" y="263" text-anchor="middle" font-family="Arial" font-size="10" fill="#333">Python FastAPI
(CV推理引擎)</text><rect x="565" y="241" width="150" height="50" rx="5" fill="#fff" stroke="#1F4E79" stroke-width="1.5"/><text x="640" y="263" text-anchor="middle" font-family="Arial" font-size="10" fill="#333">XXL-JOB
(定时任务)</text><rect x="735" y="241" width="150" height="50" rx="5" fill="#fff" stroke="#1F4E79" stroke-width="1.5"/><text x="810" y="263" text-anchor="middle" font-family="Arial" font-size="10" fill="#333">WebSocket
(实时通信)</text><line x1="490" y1="315" x2="490" y2="335" stroke="#2E75B6" stroke-width="2" marker-end="url(#a)"/><rect x="55" y="340" width="870" height="70" rx="6" fill="#E8F0FE" stroke="#2E75B6" stroke-width="1.5"/><text x="65" y="358" font-family="Arial" font-size="11" fill="#666">数据层</text><rect x="105" y="366" width="140" height="35" rx="5" fill="#fff" stroke="#999" stroke-width="1"/><text x="175" y="388" text-anchor="middle" font-family="Arial" font-size="10" fill="#333">PostgreSQL 17
(主库)</text><rect x="295" y="366" width="140" height="35" rx="5" fill="#fff" stroke="#999" stroke-width="1"/><text x="365" y="388" text-anchor="middle" font-family="Arial" font-size="10" fill="#333">Redis
(缓存)</text><rect x="475" y="366" width="140" height="35" rx="5" fill="#fff" stroke="#999" stroke-width="1"/><text x="545" y="388" text-anchor="middle" font-family="Arial" font-size="10" fill="#333">MinIO/OSS
(对象存储)</text><rect x="685" y="366" width="140" height="35" rx="5" fill="#FEF0E0" stroke="#999" stroke-width="1"/><text x="755" y="388" text-anchor="middle" font-family="Arial" font-size="10" fill="#333">Kafka
(消息队列)</text><rect x="55" y="430" width="870" height="45" rx="6" fill="#E8F5E9" stroke="#4CAF50" stroke-width="1.5"/><text x="490" y="458" text-anchor="middle" font-family="Arial" font-size="12" font-weight="bold" fill="#2E7D32">GPU 推理层 — RTX 4090 + CUDA + FFmpeg 视频处理</text><rect x="750" y="25" width="170" height="30" rx="4" fill="none" stroke="#1F4E79" stroke-width="1" stroke-dasharray="4,2"/><text x="835" y="45" text-anchor="middle" font-family="Arial" font-size="9" fill="#1F4E79">第三方服务</text><rect x="750" y="60" width="170" height="22" rx="3" fill="#FFF8E1" stroke="#FFC107" stroke-width="1"/><text x="835" y="75" text-anchor="middle" font-family="Arial" font-size="9" fill="#333">企业微信 API</text><rect x="750" y="90" width="170" height="22" rx="3" fill="#FFF8E1" stroke="#FFC107" stroke-width="1"/><text x="835" y="105" text-anchor="middle" font-family="Arial" font-size="9" fill="#333">FCM/APNs</text><rect x="750" y="120" width="170" height="22" rx="3" fill="#FFF8E1" stroke="#FFC107" stroke-width="1"/><text x="835" y="135" text-anchor="middle" font-family="Arial" font-size="9" fill="#333">LLM API</text><rect x="750" y="150" width="170" height="22" rx="3" fill="#FFF8E1" stroke="#FFC107" stroke-width="1"/><text x="835" y="165" text-anchor="middle" font-family="Arial" font-size="9" fill="#333">支付网关</text><defs><marker id="a" markerWidth="10" markerHeight="8" refX="5" refY="4" orient="auto"><polygon points="0,0 10,4 0,8" fill="#2E75B6"/></marker></defs></svg>