<?xml version="1.0"?><svg xmlns="http://www.w3.org/2000/svg" width="960" height="520" viewBox="0 0 960 520"><rect width="960" height="520" fill="#fff"/>
<text x="480" y="28" text-anchor="middle" font-family="Microsoft YaHei,Arial" font-size="16" font-weight="bold" fill="#1F4E79">部署拓扑图</text><rect x="50" y="55" width="280" height="200" rx="8" fill="#F5F7FA" stroke="#2E75B6" stroke-width="2"/><rect x="50" y="55" width="280" height="24" rx="8" fill="#2E75B6"/><text x="190" y="72" text-anchor="middle" font-family="Arial" font-size="12" fill="#fff" font-weight="bold">应用服务器-1 (4C8G)</text><rect x="65" y="89" width="250" height="30" rx="4" fill="#fff" stroke="#B0BEC5" stroke-width="1"/><text x="75" y="109" font-family="Arial" font-size="10" fill="#333">Nginx :443</text><rect x="65" y="127" width="250" height="30" rx="4" fill="#fff" stroke="#B0BEC5" stroke-width="1"/><text x="75" y="147" font-family="Arial" font-size="10" fill="#333">Spring Boot API :8080</text><rect x="65" y="165" width="250" height="30" rx="4" fill="#fff" stroke="#B0BEC5" stroke-width="1"/><text x="75" y="185" font-family="Arial" font-size="10" fill="#333">XXL-JOB 定时任务</text><rect x="65" y="203" width="250" height="30" rx="4" fill="#fff" stroke="#B0BEC5" stroke-width="1"/><text x="75" y="223" font-family="Arial" font-size="10" fill="#333">—</text><rect x="380" y="55" width="280" height="200" rx="8" fill="#F5F7FA" stroke="#2E75B6" stroke-width="2"/><rect x="380" y="55" width="280" height="24" rx="8" fill="#2E75B6"/><text x="520" y="72" text-anchor="middle" font-family="Arial" font-size="12" fill="#fff" font-weight="bold">应用服务器-2 (4C8G)</text><rect x="395" y="89" width="250" height="30" rx="4" fill="#fff" stroke="#B0BEC5" stroke-width="1"/><text x="405" y="109" font-family="Arial" font-size="10" fill="#333">Nginx :443</text><rect x="395" y="127" width="250" height="30" rx="4" fill="#fff" stroke="#B0BEC5" stroke-width="1"/><text x="405" y="147" font-family="Arial" font-size="10" fill="#333">Spring Boot API :8080</text><rect x="395" y="165" width="250" height="30" rx="4" fill="#fff" stroke="#B0BEC5" stroke-width="1"/><text x="405" y="185" font-family="Arial" font-size="10" fill="#333">Spring Boot API :8081</text><rect x="395" y="203" width="250" height="30" rx="4" fill="#fff" stroke="#B0BEC5" stroke-width="1"/><text x="405" y="223" font-family="Arial" font-size="10" fill="#333">—</text><rect x="710" y="55" width="220" height="200" rx="8" fill="#F5F7FA" stroke="#2E75B6" stroke-width="2"/><rect x="710" y="55" width="220" height="24" rx="8" fill="#2E75B6"/><text x="820" y="72" text-anchor="middle" font-family="Arial" font-size="12" fill="#fff" font-weight="bold">数据服务器 (8C16G)</text><rect x="725" y="89" width="190" height="30" rx="4" fill="#fff" stroke="#B0BEC5" stroke-width="1"/><text x="735" y="109" font-family="Arial" font-size="10" fill="#333">PostgreSQL 17 :5432</text><rect x="725" y="127" width="190" height="30" rx="4" fill="#fff" stroke="#B0BEC5" stroke-width="1"/><text x="735" y="147" font-family="Arial" font-size="10" fill="#333">Redis :6379</text><rect x="725" y="165" width="190" height="30" rx="4" fill="#fff" stroke="#B0BEC5" stroke-width="1"/><text x="735" y="185" font-family="Arial" font-size="10" fill="#333">MinIO :9000</text><rect x="725" y="203" width="190" height="30" rx="4" fill="#fff" stroke="#B0BEC5" stroke-width="1"/><text x="735" y="223" font-family="Arial" font-size="10" fill="#333">Kafka Broker</text><rect x="50" y="290" width="280" height="140" rx="8" fill="#F1F8E9" stroke="#4CAF50" stroke-width="2"/><rect x="50" y="290" width="280" height="24" rx="8" fill="#4CAF50"/><text x="190" y="307" text-anchor="middle" font-family="Arial" font-size="12" fill="#fff" font-weight="bold">GPU 推理机 (RTX 4090 24GB)</text><rect x="65" y="324" width="250" height="20" rx="4" fill="#fff" stroke="#A5D6A7" stroke-width="1"/><text x="75" y="338" font-family="Arial" font-size="9" fill="#333">Python FastAPI :9001</text><rect x="65" y="346" width="250" height="20" rx="4" fill="#fff" stroke="#A5D6A7" stroke-width="1"/><text x="75" y="360" font-family="Arial" font-size="9" fill="#333">YOLOv8 + OpenCV</text><rect x="65" y="368" width="250" height="20" rx="4" fill="#fff" stroke="#A5D6A7" stroke-width="1"/><text x="75" y="382" font-family="Arial" font-size="9" fill="#333">FFmpeg 进程池 ×N</text><rect x="65" y="390" width="250" height="20" rx="4" fill="#fff" stroke="#A5D6A7" stroke-width="1"/><text x="75" y="404" font-family="Arial" font-size="9" fill="#333">CUDA 12 + TensorRT</text><rect x="380" y="290" width="550" height="140" rx="8" fill="#FFF8E1" stroke="#FFC107" stroke-width="1.5"/><rect x="380" y="290" width="550" height="24" rx="8" fill="#FFC107"/><text x="655" y="307" text-anchor="middle" font-family="Arial" font-size="12" fill="#333" font-weight="bold">外部服务</text><rect x="395" y="324" width="250" height="24" rx="4" fill="#fff" stroke="#FFE082" stroke-width="1"/><text x="520" y="340" text-anchor="middle" font-family="Arial" font-size="9" fill="#333">FCM/APNs 推送服务</text><rect x="395" y="356" width="250" height="24" rx="4" fill="#fff" stroke="#FFE082" stroke-width="1"/><text x="520" y="372" text-anchor="middle" font-family="Arial" font-size="9" fill="#333">企业微信官方 API</text><rect x="395" y="388" width="250" height="24" rx="4" fill="#fff" stroke="#FFE082" stroke-width="1"/><text x="520" y="404" text-anchor="middle" font-family="Arial" font-size="9" fill="#333">OpenAI / DeepSeek LLM API</text><rect x="665" y="324" width="250" height="24" rx="4" fill="#fff" stroke="#FFE082" stroke-width="1"/><text x="790" y="340" text-anchor="middle" font-family="Arial" font-size="9" fill="#333">微信支付 + 支付宝 API</text><rect x="665" y="356" width="250" height="24" rx="4" fill="#fff" stroke="#FFE082" stroke-width="1"/><text x="790" y="372" text-anchor="middle" font-family="Arial" font-size="9" fill="#333">Docker Registry</text><rect x="665" y="388" width="250" height="24" rx="4" fill="#fff" stroke="#FFE082" stroke-width="1"/><text x="790" y="404" text-anchor="middle" font-family="Arial" font-size="9" fill="#333">GitHub Actions CI/CD</text><text x="640" y="442" text-anchor="middle" font-family="Arial" font-size="11" fill="#1F4E79" font-weight="bold">Docker + Docker Compose · 全容器化部署 · GitHub Actions 自动构建</text></svg>