<?xml version="1.0"?><svg xmlns="http://www.w3.org/2000/svg" width="960" height="500" viewBox="0 0 960 500"><rect width="960" height="500" fill="#fff"/>
<text x="480" y="28" text-anchor="middle" font-family="Microsoft YaHei,Arial" font-size="16" font-weight="bold" fill="#1F4E79">系统接口关系图</text><rect x="300" y="200" width="320" height="120" rx="10" fill="#E3F2FD" stroke="#1F4E79" stroke-width="2"/><text x="460" y="230" text-anchor="middle" font-family="Arial" font-size="14" font-weight="bold" fill="#1F4E79">Spring Boot API Server</text><text x="460" y="265" text-anchor="middle" font-family="Arial" font-size="10" fill="#333">RESTful + WebSocket + STOMP</text><text x="460" y="285" text-anchor="middle" font-family="Arial" font-size="10" fill="#333">内部服务间 HTTP JSON 通信</text><rect x="30" y="65" width="160" height="60" rx="6" fill="#E8F5E9" stroke="#4CAF50" stroke-width="1.5"/><text x="110" y="88" text-anchor="middle" font-family="Arial" font-size="11" font-weight="bold" fill="#2E7D32">Flutter App</text><text x="110" y="108" text-anchor="middle" font-family="Arial" font-size="9" fill="#333">HTTP REST + WS</text><rect x="230" y="65" width="140" height="60" rx="6" fill="#E8F5E9" stroke="#4CAF50" stroke-width="1.5"/><text x="300" y="88" text-anchor="middle" font-family="Arial" font-size="11" font-weight="bold" fill="#2E7D32">Vue3 Admin</text><text x="300" y="108" text-anchor="middle" font-family="Arial" font-size="9" fill="#333">HTTP REST</text><rect x="730" y="65" width="200" height="60" rx="6" fill="#E8F5E9" stroke="#4CAF50" stroke-width="1.5"/><text x="830" y="88" text-anchor="middle" font-family="Arial" font-size="11" font-weight="bold" fill="#2E7D32">H5 WebView (资讯)</text><text x="830" y="108" text-anchor="middle" font-family="Arial" font-size="9" fill="#333">HTTP REST</text><line x1="110" y1="125" x2="400" y2="200" stroke="#4CAF50" stroke-width="1.5"/><text x="240" y="155" text-anchor="middle" font-family="Arial" font-size="8" fill="#666">REST API</text><line x1="300" y1="125" x2="460" y2="200" stroke="#4CAF50" stroke-width="1.5"/><text x="390" y="155" text-anchor="middle" font-family="Arial" font-size="8" fill="#666">REST API</text><line x1="830" y1="125" x2="600" y2="200" stroke="#4CAF50" stroke-width="1.5"/><text x="700" y="155" text-anchor="middle" font-family="Arial" font-size="8" fill="#666">REST API</text><rect x="80" y="400" width="120" height="50" rx="6" fill="#ECEFF1" stroke="#607D8B" stroke-width="1.5"/><text x="140" y="425" text-anchor="middle" font-family="Arial" font-size="10" font-weight="bold" fill="#37474F">PostgreSQL</text><text x="140" y="439" text-anchor="middle" font-family="Arial" font-size="9" fill="#666">JDBC</text><rect x="250" y="400" width="120" height="50" rx="6" fill="#ECEFF1" stroke="#607D8B" stroke-width="1.5"/><text x="310" y="425" text-anchor="middle" font-family="Arial" font-size="10" font-weight="bold" fill="#37474F">Redis</text><text x="310" y="439" text-anchor="middle" font-family="Arial" font-size="9" fill="#666">Lettuce</text><rect x="420" y="400" width="120" height="50" rx="6" fill="#ECEFF1" stroke="#607D8B" stroke-width="1.5"/><text x="480" y="425" text-anchor="middle" font-family="Arial" font-size="10" font-weight="bold" fill="#37474F">MinIO/OSS</text><text x="480" y="439" text-anchor="middle" font-family="Arial" font-size="9" fill="#666">S3 SDK</text><rect x="590" y="400" width="120" height="50" rx="6" fill="#ECEFF1" stroke="#607D8B" stroke-width="1.5"/><text x="650" y="425" text-anchor="middle" font-family="Arial" font-size="10" font-weight="bold" fill="#37474F">Kafka</text><text x="650" y="439" text-anchor="middle" font-family="Arial" font-size="9" fill="#666">Stream</text><rect x="760" y="400" width="160" height="50" rx="6" fill="#ECEFF1" stroke="#607D8B" stroke-width="1.5"/><text x="840" y="425" text-anchor="middle" font-family="Arial" font-size="10" font-weight="bold" fill="#37474F">XXL-JOB</text><text x="840" y="439" text-anchor="middle" font-family="Arial" font-size="9" fill="#666">HTTP Callback</text><line x1="400" y1="320" x2="140" y2="400" stroke="#607D8B" stroke-width="1"/><line x1="460" y1="320" x2="310" y2="400" stroke="#607D8B" stroke-width="1"/><line x1="500" y1="320" x2="480" y2="400" stroke="#607D8B" stroke-width="1"/><line x1="520" y1="320" x2="650" y2="400" stroke="#607D8B" stroke-width="1"/><line x1="550" y1="320" x2="840" y2="400" stroke="#607D8B" stroke-width="1"/><rect x="30" y="190" width="130" height="70" rx="6" fill="#FCE4EC" stroke="#E91E63" stroke-width="1.5"/><text x="95" y="215" text-anchor="middle" font-family="Arial" font-size="11" font-weight="bold" fill="#C2185B">Python CV</text><text x="95" y="235" text-anchor="middle" font-family="Arial" font-size="9" fill="#333">FastAPI :9001</text><text x="95" y="250" text-anchor="middle" font-family="Arial" font-size="8" fill="#666">HTTP JSON</text><line x1="160" y1="225" x2="300" y2="225" stroke="#E91E63" stroke-width="1.5"/><text x="230" y="218" text-anchor="middle" font-family="Arial" font-size="8" fill="#C2185B">行为识别请求</text><rect x="750" y="150" width="180" height="100" rx="6" fill="#FFF8E1" stroke="#FFC107" stroke-width="1.5"/><text x="840" y="172" text-anchor="middle" font-family="Arial" font-size="11" font-weight="bold" fill="#F57F17">外部API</text><text x="760" y="192" font-family="Arial" font-size="8" fill="#333">FCM/APNs</text><text x="760" y="206" font-family="Arial" font-size="8" fill="#333">企业微信 API</text><text x="760" y="220" font-family="Arial" font-size="8" fill="#333">LLM (OpenAI)</text><text x="760" y="234" font-family="Arial" font-size="8" fill="#333">支付 (微信/支付宝)</text><line x1="620" y1="230" x2="750" y2="200" stroke="#FFC107" stroke-width="1"/><text x="680" y="210" text-anchor="middle" font-family="Arial" font-size="8" fill="#F57F17">HTTP/WS</text><rect x="30" y="300" width="130" height="60" rx="6" fill="#F3E5F5" stroke="#9C27B0" stroke-width="1.5"/><text x="95" y="322" text-anchor="middle" font-family="Arial" font-size="11" font-weight="bold" fill="#7B1FA2">企业微信 API</text><text x="95" y="342" text-anchor="middle" font-family="Arial" font-size="9" fill="#333">HTTP POST</text><line x1="160" y1="330" x2="300" y2="310" stroke="#9C27B0" stroke-width="1.5"/><text x="220" y="315" text-anchor="middle" font-family="Arial" font-size="8" fill="#7B1FA2">官方API</text></svg>